<?xml version="1.0" standalone="no"?>
<!DOCTYPE svg PUBLIC "-//W3C//DTD SVG 20010904//EN"
 "http://www.w3.org/TR/2001/REC-SVG-20010904/DTD/svg10.dtd">
<svg version="1.0" xmlns="http://www.w3.org/2000/svg"
 width="700.000000pt" height="700.000000pt" viewBox="0 0 700.000000 700.000000"
 preserveAspectRatio="xMidYMid meet">
<metadata>
Created by potrace 1.11, written by Peter Selinger 2001-2013
</metadata>
<g transform="translate(0.000000,700.000000) scale(0.100000,-0.100000)"
fill="#000000" stroke="none">
<path d="M2330 6124 l-204 -205 334 -334 335 -335 -835 0 c-459 -1 -853 -3
-875 -6 -56 -8 -184 -53 -220 -77 -149 -102 -247 -246 -273 -400 -3 -23 -7
-796 -7 -1717 0 -1606 1 -1678 19 -1740 61 -215 220 -368 436 -421 45 -11 477
-13 2440 -14 1312 0 2409 3 2439 8 122 18 237 77 324 164 57 57 121 156 138
212 35 118 35 113 34 1821 -1 921 -5 1686 -8 1699 -58 225 -191 374 -397 444
-65 22 -70 22 -933 27 l-867 5 332 332 332 333 -207 206 -207 206 -480 -480
-480 -480 -479 479 c-263 263 -481 479 -482 479 -2 -1 -96 -93 -209 -206z"/>
</g>
</svg>
